<svg viewBox="0 0 512 512" xmlns="http://www.w3.org/2000/svg"><path d="m170 441.39-126.45-127.39c-15.4-15.39-15.4-48.7 0-63.28l181.23-182c14.58-14.56 47.06-14.56 61.55 0l182.11 182.03c15.41 15.4 15.41 48.73 0 63.29l-126.54 127.38a46.18 46.18 0 0 1 -31.64 12.81h-110.26c-11.15-.02-22.24-5.15-30-12.84zm115.44-49.58a7.85 7.85 0 0 0 0-10.27l-24.79-24.79a7.3 7.3 0 0 0 -10.25 0l-24.81 24.62a7.55 7.55 0 0 0 0 10.08l19.68 18.76h20.51l19.88-19zm0-105.15c1.71-1.68 1.71-6 0-7.69l-26.44-26.3c-1.68-1.7-6-1.7-7.69 0l-76.92 77c-2.6 2.8-2.6 8.68 0 11.22l17.9 17.92h20.57l72.67-72v-.17zm0-104.29c1.71-1.7 2.55-6.83 0-8.55l-25.64-25.65c-1.68-1.94-6.81-1.94-9.37 0l-129.06 129.08c-1.75 1.68-2.61 6.7-.91 8.38l20.54 19.6h19.65z"/></svg>