<svg viewBox="0 0 512 512" xmlns="http://www.w3.org/2000/svg"><path d="m397.17 56a58.82 58.82 0 0 1 58.83 58.83v282.34a58.82 58.82 0 0 1 -58.83 58.83h-282.34a58.82 58.82 0 0 1 -58.83-58.83v-282.34a58.82 58.82 0 0 1 58.83-58.83zm-61.75 241.17a23.41 23.41 0 1 0 0-.19zm-135.92 46.28c20 0 34.27-.7 43-2s16.27-3.7 22-6.87a40.17 40.17 0 0 0 17-16.5c4-7.1 6-15.25 6-24.66q0-19.5-10.5-31.17c-7-8-16.5-12.23-29-13.23 11-3 19.27-7.5 24.27-13.5 5.25-5.74 7.75-13.74 7.75-23.74a43.82 43.82 0 0 0 -5-21 39.06 39.06 0 0 0 -14.72-14.5c-5.75-3.25-12.25-5.25-20.25-6.75-7.73-1.23-21.5-2-41.23-2h-48.59v174.77h49.27zm12.27-69.75q17.63 0 24 4.37c4.5 3 6.5 8.25 6.5 15.5 0 6.75-2.25 11.5-7 14.25-4.5 3-12.75 4.23-24 4.23h-16.77v-38.28h17.5zm144.23 11.77v-117.67h-41v117.67zm-151.25-78.14c11.83 0 19.75 1.34 23.87 4s6.11 7.25 6.11 13.84c0 6.33-2.16 10.76-6.5 13.4s-12.45 3.86-24.2 3.86h-9.5v-35.1z"/></svg>