<svg viewBox="0 0 512 512" xmlns="http://www.w3.org/2000/svg"><path d="m393.48 216.1a11.77 11.77 0 0 1 0 23.54h-32.76v21h32.76a11.75 11.75 0 1 1 0 23.5h-44.54a11.78 11.78 0 0 1 -11.7-11.74v-89.06a11.79 11.79 0 0 1 11.76-11.76h44.54a11.76 11.76 0 0 1 -.06 23.52h-32.76v21zm-72 56.3a11.76 11.76 0 0 1 -8.06 11.13 12.19 12.19 0 0 1 -3.72.58 11.53 11.53 0 0 1 -9.52-4.67l-45.6-61.92v54.88a11.74 11.74 0 1 1 -23.47 0v-89.06a11.68 11.68 0 0 1 8-11.1 10.85 10.85 0 0 1 3.62-.62 12.07 12.07 0 0 1 9.24 4.74l46 62.16v-55.18a11.76 11.76 0 0 1 23.52 0zm-107.17 0a11.74 11.74 0 1 1 -23.48 0v-89.06a11.74 11.74 0 1 1 23.48 0zm-46 11.74h-44.53a11.83 11.83 0 0 1 -11.78-11.74v-89.06a11.76 11.76 0 1 1 23.52 0v77.3h32.78a11.75 11.75 0 0 1 0 23.5m311.7-59.62c0-100.26-100.52-181.85-224-181.85s-224 81.59-224 181.85c0 89.81 79.71 165 187.32 179.35 7.3 1.53 17.23 4.82 19.75 11 2.24 5.61 1.47 14.29.71 20.16l-3.06 19c-.84 5.61-4.48 22.13 19.58 12s129.1-76.03 176.14-130.1c32.18-35.27 47.56-71.39 47.56-111.41"/></svg>