<svg viewBox="0 0 512 512" xmlns="http://www.w3.org/2000/svg"><path d="m369.55 237-94.1 90.32a27.51 27.51 0 0 1 -38 0l-94.13-90.32a27.42 27.42 0 0 1 37.93-39.6l75.18 72 75.29-72a27.44 27.44 0 0 1 38 39.58zm84.72-125.77a36 36 0 0 0 -34-23.93h-327.95a36.33 36.33 0 0 0 -36.32 36.32v120.75l1.4 24c5.8 54.63 34.12 102.38 78.03 135.63.75.6 1.57 1.17 2.39 1.75l.5.39a198.28 198.28 0 0 0 78.23 34.53 203 203 0 0 0 39.82 4 199.61 199.61 0 0 0 36.81-3.4 30.6 30.6 0 0 1 4.4-1 2.92 2.92 0 0 0 1.24-.48 200.14 200.14 0 0 0 75.18-33.72l.48-.52 2.25-1.75c43.79-33.25 72.07-81 78.1-135.8l1.17-24v-120.57a35 35 0 0 0 -2-12.36z"/></svg>