<?xml version="1.0" encoding="utf-8"?><svg xmlns="http://www.w3.org/2000/svg" xmlns:xlink="http://www.w3.org/1999/xlink"><symbol viewBox="0 0 512 512" id="arrow-down" xmlns="http://www.w3.org/2000/svg"><path d="M256 446a33.11 33.11 0 0 0 23.49-9.73L434 281.73a33.22 33.22 0 0 0 0-47 33.23 33.23 0 0 0-47 0l-99.38 99.39V97.67A31.67 31.67 0 0 0 256 66a31.67 31.67 0 0 0-31.67 31.67v236.46L125 234.74a33.23 33.23 0 0 0-47 0 33.22 33.22 0 0 0 0 47l154.51 154.53A33.11 33.11 0 0 0 256 446z"/></symbol><symbol viewBox="0 0 512 512" id="arrow-left" xmlns="http://www.w3.org/2000/svg"><path d="M66 256a33.11 33.11 0 0 0 9.73 23.49L230.27 434a33.22 33.22 0 0 0 47 0 33.23 33.23 0 0 0 0-47l-99.39-99.38h236.45A31.67 31.67 0 0 0 446 256a31.67 31.67 0 0 0-31.67-31.67H177.87L277.26 125a33.23 33.23 0 0 0 0-47 33.22 33.22 0 0 0-47 0L75.73 232.51A33.11 33.11 0 0 0 66 256z"/></symbol><symbol viewBox="0 0 512 512" id="arrow-right" xmlns="http://www.w3.org/2000/svg"><path d="M446 256a33.11 33.11 0 0 0-9.73-23.49L281.73 78a33.22 33.22 0 0 0-47 0 33.23 33.23 0 0 0 0 47l99.39 99.38H97.67A31.67 31.67 0 0 0 66 256a31.67 31.67 0 0 0 31.67 31.67h236.46l-99.39 99.38a33.23 33.23 0 0 0 0 47 33.22 33.22 0 0 0 47 0l154.53-154.56A33.11 33.11 0 0 0 446 256z"/></symbol><symbol viewBox="0 0 512 512" id="arrow-up" xmlns="http://www.w3.org/2000/svg"><path d="M256 66a33.11 33.11 0 0 0-23.49 9.73L78 230.27a33.22 33.22 0 0 0 0 47 33.23 33.23 0 0 0 47 0l99.38-99.39v236.45A31.67 31.67 0 0 0 256 446a31.67 31.67 0 0 0 31.67-31.67V177.87l99.38 99.39a33.23 33.23 0 0 0 47 0 33.22 33.22 0 0 0 0-47L279.49 75.73A33.11 33.11 0 0 0 256 66z"/></symbol><symbol viewBox="0 0 512 512" id="close" xmlns="http://www.w3.org/2000/svg"><path d="M304.56 256l121.38-121.39a34.32 34.32 0 0 0 0-48.55 34.32 34.32 0 0 0-48.55 0L256 207.44 134.61 86.06a34.32 34.32 0 0 0-48.55 0 34.32 34.32 0 0 0 0 48.55L207.44 256 86.06 377.39a34.32 34.32 0 0 0 0 48.55 34.32 34.32 0 0 0 48.55 0L256 304.56l121.39 121.38a34.32 34.32 0 0 0 48.55 0 34.32 34.32 0 0 0 0-48.55z"/></symbol><symbol viewBox="0 0 512 512" id="facebook" xmlns="http://www.w3.org/2000/svg"><path d="M433.93 56H78.07A22.07 22.07 0 0 0 56 78.07v355.86A22.06 22.06 0 0 0 78.07 456h191.56V301.1h-52.15v-60.35h52.15v-44.58c0-51.65 31.57-79.75 77.65-79.75a429.2 429.2 0 0 1 46.6 2.35v54h-32c-25 0-29.87 12-29.87 29.51v38.52h59.73L384 301.3h-52V456h101.92A22.06 22.06 0 0 0 456 433.93V78.07A22.06 22.06 0 0 0 433.93 56"/></symbol><symbol viewBox="0 0 512 512" id="feedly" xmlns="http://www.w3.org/2000/svg"><path d="M170 441.39L43.55 314c-15.4-15.39-15.4-48.7 0-63.28l181.23-182c14.58-14.56 47.06-14.56 61.55 0l182.11 182.03c15.41 15.4 15.41 48.73 0 63.29L341.9 441.42a46.18 46.18 0 0 1-31.64 12.81H200c-11.15-.02-22.24-5.15-30-12.84zm115.44-49.58a7.85 7.85 0 0 0 0-10.27l-24.79-24.79a7.3 7.3 0 0 0-10.25 0l-24.81 24.62a7.55 7.55 0 0 0 0 10.08l19.68 18.76h20.51l19.88-19zm0-105.15c1.71-1.68 1.71-6 0-7.69L259 252.67c-1.68-1.7-6-1.7-7.69 0l-76.92 77c-2.6 2.8-2.6 8.68 0 11.22l17.9 17.92h20.57l72.67-72v-.17zm0-104.29c1.71-1.7 2.55-6.83 0-8.55l-25.64-25.65c-1.68-1.94-6.81-1.94-9.37 0L121.37 277.25c-1.75 1.68-2.61 6.7-.91 8.38l20.54 19.6h19.65z"/></symbol><symbol viewBox="0 0 512 512" id="google-plus" xmlns="http://www.w3.org/2000/svg"><path d="M174.52 235.62v48.88h80.92c-3.23 21-24.44 61.5-80.85 61.5-48.6 0-88.31-40.32-88.31-90s39.61-90 88.26-90c27.72 0 46.27 11.82 56.84 22l38.69-37.22c-24.82-23.24-57-37.24-95.48-37.24a142.5 142.5 0 1 0-.07 285c82.32 0 136.86-57.83 136.86-139.27a129.17 129.17 0 0 0-2.24-23.61zm305.48 0h-40.75v-40.75H398.5v40.75h-40.73v40.71h40.77v40.77h40.86v-40.77H480"/></symbol><symbol viewBox="0 0 512 512" id="hatena-bookmark" xmlns="http://www.w3.org/2000/svg"><path d="M397.17 56A58.82 58.82 0 0 1 456 114.83v282.34A58.82 58.82 0 0 1 397.17 456H114.83A58.82 58.82 0 0 1 56 397.17V114.83A58.82 58.82 0 0 1 114.83 56zm-61.75 241.17a23.41 23.41 0 1 0 0-.19zM199.5 343.45c20 0 34.27-.7 43-2s16.27-3.7 22-6.87a40.17 40.17 0 0 0 17-16.5c4-7.1 6-15.25 6-24.66q0-19.5-10.5-31.17c-7-8-16.5-12.23-29-13.23 11-3 19.27-7.5 24.27-13.5 5.25-5.74 7.75-13.74 7.75-23.74a43.82 43.82 0 0 0-5-21 39.06 39.06 0 0 0-14.72-14.5c-5.75-3.25-12.25-5.25-20.25-6.75-7.73-1.23-21.5-2-41.23-2h-48.59V342.3h49.27zm12.27-69.75q17.63 0 24 4.37c4.5 3 6.5 8.25 6.5 15.5 0 6.75-2.25 11.5-7 14.25-4.5 3-12.75 4.23-24 4.23H194.5v-38.28H212zM356 285.47V167.8h-41v117.67zm-151.25-78.14c11.83 0 19.75 1.34 23.87 4s6.11 7.25 6.11 13.84c0 6.33-2.16 10.76-6.5 13.4s-12.45 3.86-24.2 3.86h-9.5v-35.1z"/></symbol><symbol viewBox="0 0 512 512" id="line" xmlns="http://www.w3.org/2000/svg"><path d="M393.48 216.1a11.77 11.77 0 0 1 0 23.54h-32.76v21h32.76a11.75 11.75 0 1 1 0 23.5h-44.54a11.78 11.78 0 0 1-11.7-11.74v-89.06A11.79 11.79 0 0 1 349 171.58h44.54a11.76 11.76 0 0 1-.06 23.52h-32.76v21zm-72 56.3a11.76 11.76 0 0 1-8.06 11.13 12.19 12.19 0 0 1-3.72.58 11.53 11.53 0 0 1-9.52-4.67l-45.6-61.92v54.88a11.74 11.74 0 1 1-23.47 0v-89.06a11.68 11.68 0 0 1 8-11.1 10.85 10.85 0 0 1 3.62-.62 12.07 12.07 0 0 1 9.24 4.74l46 62.16v-55.18a11.76 11.76 0 0 1 23.52 0zm-107.17 0a11.74 11.74 0 1 1-23.48 0v-89.06a11.74 11.74 0 1 1 23.48 0zm-46 11.74h-44.53A11.83 11.83 0 0 1 112 272.4v-89.06a11.76 11.76 0 1 1 23.52 0v77.3h32.78a11.75 11.75 0 0 1 0 23.5M480 224.52c0-100.26-100.52-181.85-224-181.85S32 124.26 32 224.52c0 89.81 79.71 165 187.32 179.35 7.3 1.53 17.23 4.82 19.75 11 2.24 5.61 1.47 14.29.71 20.16l-3.06 19c-.84 5.61-4.48 22.13 19.58 12S385.4 390 432.44 335.93C464.62 300.66 480 264.54 480 224.52"/></symbol><symbol viewBox="0 0 512 512" id="menu" xmlns="http://www.w3.org/2000/svg"><rect height="60" rx="30" width="400" x="56" y="226"/><rect height="60" rx="30" width="400" x="56" y="366"/><rect height="60" rx="30" width="400" x="56" y="86"/></symbol><symbol viewBox="0 0 512 512" id="pocket" xmlns="http://www.w3.org/2000/svg"><path d="M369.55 237l-94.1 90.32a27.51 27.51 0 0 1-38 0L143.32 237a27.42 27.42 0 0 1 37.93-39.6l75.18 72 75.29-72a27.44 27.44 0 0 1 38 39.58zm84.72-125.77a36 36 0 0 0-34-23.93H92.32A36.33 36.33 0 0 0 56 123.62v120.75l1.4 24C63.2 323 91.52 370.75 135.43 404c.75.6 1.57 1.17 2.39 1.75l.5.39a198.28 198.28 0 0 0 78.23 34.53 203 203 0 0 0 39.82 4 199.61 199.61 0 0 0 36.81-3.4 30.6 30.6 0 0 1 4.4-1 2.92 2.92 0 0 0 1.24-.48A200.14 200.14 0 0 0 374 406.07l.48-.52 2.25-1.75c43.79-33.25 72.07-81 78.1-135.8l1.17-24V123.43a35 35 0 0 0-2-12.36z"/></symbol><symbol viewBox="0 0 512 512" id="rss" xmlns="http://www.w3.org/2000/svg"><path d="M370 446c0-166.77-137.21-304-304-304V66c208.45 0 380 171.55 380 380zM118.11 341.74A52.13 52.13 0 1 1 66 393.91a52.24 52.24 0 0 1 52.11-52.17zM317.89 446H244c0-97.68-80.35-178-178-178v-73.91c138.18 0 251.89 113.75 251.89 251.91z"/></symbol><symbol viewBox="0 0 512 512" id="triangle-right" xmlns="http://www.w3.org/2000/svg"><path d="M428.43 245.79L151 74.17a12 12 0 0 0-18.31 10.21v343.24A12 12 0 0 0 151 437.83l277.43-171.62a12 12 0 0 0 0-20.42z"/></symbol><symbol viewBox="0 0 512 512" id="twitter" xmlns="http://www.w3.org/2000/svg"><path d="M478.62 117.61A186.27 186.27 0 0 1 426 132.05a92.38 92.38 0 0 0 40.3-50.72 189.33 189.33 0 0 1-58.24 22 91.61 91.61 0 0 0-158.51 62.54 93.65 93.65 0 0 0 2.36 20.94C175.74 183.26 108.23 146.69 63 91.39a89.82 89.82 0 0 0-12.4 46.09 91.65 91.65 0 0 0 40.75 76.29A91.28 91.28 0 0 1 49.9 202.3v1.13a91.68 91.68 0 0 0 73.49 89.9 92.44 92.44 0 0 1-41.2 1.59 91.93 91.93 0 0 0 85.75 63.63 183.77 183.77 0 0 1-113.65 39.21 194.39 194.39 0 0 1-21.79-1.25 260.67 260.67 0 0 0 140.74 41.14C341.87 437.65 434 298 434 177.17c0-3.89 0-7.82-.28-11.73A185 185 0 0 0 479.5 118z"/></symbol></svg>